<?xml version="1.0" encoding="utf-8"?>
<!-- Generator: Adobe Illustrator 23.1.0, SVG Export Plug-In . SVG Version: 6.00 Build 0)  -->
<svg version="1.1" id="Layer_1" xmlns="http://www.w3.org/2000/svg" xmlns:xlink="http://www.w3.org/1999/xlink" x="0px" y="0px"
	 viewBox="0 0 487.4 217.4" style="enable-background:new 0 0 487.4 217.4;" xml:space="preserve">
<style type="text/css">
	.st0{fill:#FFFFFF;filter:url(#Adobe_OpacityMaskFilter);}
	.st1{mask:url(#path-1-inside-1_4_155_2_);}
	.st2{fill:#FFFFFF;filter:url(#Adobe_OpacityMaskFilter_1_);}
	.st3{mask:url(#path-2-inside-2_4_155_2_);}
	.st4{fill:#FFFFFF;filter:url(#Adobe_OpacityMaskFilter_2_);}
	.st5{mask:url(#path-3-inside-3_4_155_2_);}
	.st6{fill:#FFFFFF;filter:url(#Adobe_OpacityMaskFilter_3_);}
	.st7{mask:url(#path-4-inside-4_4_155_2_);}
	.st8{fill:#8C8C8C;}
</style>
<defs>
	<filter id="Adobe_OpacityMaskFilter" filterUnits="userSpaceOnUse" x="-15" y="23" width="126" height="125">
		<feColorMatrix  type="matrix" values="1 0 0 0 0  0 1 0 0 0  0 0 1 0 0  0 0 0 1 0"/>
	</filter>
</defs>
<mask maskUnits="userSpaceOnUse" x="-15" y="23" width="126" height="125" id="path-1-inside-1_4_155_2_">
	<path class="st0" d="M6,38h84c3.3,0,6,2.7,6,6v83c0,3.3-2.7,6-6,6H6c-3.3,0-6-2.7-6-6V44C0,40.7,2.7,38,6,38z"/>
</mask>
<g class="st1">
	<path d="M90,148H6c-11.6,0-21-9.4-21-21V44c0-11.6,9.4-21,21-21h84c11.6,0,21,9.4,21,21v83C111,138.6,101.6,148,90,148z M15,118h66
		V53H15V118z"/>
</g>
<defs>
	<filter id="Adobe_OpacityMaskFilter_1_" filterUnits="userSpaceOnUse" x="-15" y="107" width="125" height="125">
		<feColorMatrix  type="matrix" values="1 0 0 0 0  0 1 0 0 0  0 0 1 0 0  0 0 0 1 0"/>
	</filter>
</defs>
<mask maskUnits="userSpaceOnUse" x="-15" y="107" width="125" height="125" id="path-2-inside-2_4_155_2_">
	<path class="st2" d="M6,122h83c3.3,0,6,2.7,6,6v83c0,3.3-2.7,6-6,6H6c-3.3,0-6-2.7-6-6v-83C0,124.7,2.7,122,6,122z"/>
</mask>
<g class="st3">
	<path d="M89,232H6c-11.6,0-21-9.4-21-21v-83c0-11.6,9.4-21,21-21h83c11.6,0,21,9.4,21,21v83C110,222.6,100.6,232,89,232z M15,202
		h65v-65H15V202z"/>
</g>
<defs>
	<filter id="Adobe_OpacityMaskFilter_2_" filterUnits="userSpaceOnUse" x="65" y="107" width="126" height="125">
		<feColorMatrix  type="matrix" values="1 0 0 0 0  0 1 0 0 0  0 0 1 0 0  0 0 0 1 0"/>
	</filter>
</defs>
<mask maskUnits="userSpaceOnUse" x="65" y="107" width="126" height="125" id="path-3-inside-3_4_155_2_">
	<path class="st4" d="M86,122h84c3.3,0,6,2.7,6,6v83c0,3.3-2.7,6-6,6H86c-3.3,0-6-2.7-6-6v-83C80,124.7,82.7,122,86,122z"/>
</mask>
<g class="st5">
	<path d="M170,232H86c-11.6,0-21-9.4-21-21v-83c0-11.6,9.4-21,21-21h84c11.6,0,21,9.4,21,21v83C191,222.6,181.6,232,170,232z
		 M95,202h66v-65H95V202z"/>
</g>
<defs>
	<filter id="Adobe_OpacityMaskFilter_3_" filterUnits="userSpaceOnUse" x="107" y="-15" width="125" height="125">
		<feColorMatrix  type="matrix" values="1 0 0 0 0  0 1 0 0 0  0 0 1 0 0  0 0 0 1 0"/>
	</filter>
</defs>
<mask maskUnits="userSpaceOnUse" x="107" y="-15" width="125" height="125" id="path-4-inside-4_4_155_2_">
	<path class="st6" d="M128,0h83c3.3,0,6,2.7,6,6v83c0,3.3-2.7,6-6,6h-83c-3.3,0-6-2.7-6-6V6C122,2.7,124.7,0,128,0z"/>
</mask>
<g class="st7">
	<path d="M211,110h-83c-11.6,0-21-9.4-21-21V6c0-11.6,9.4-21,21-21h83c11.6,0,21,9.4,21,21v83C232,100.6,222.6,110,211,110z M137,80
		h65V15h-65V80z"/>
</g>
<g>
	<path class="st8" d="M246,65.8h11.3v49.6H246V65.8z M245.8,46.2h11.9v12.2h-11.9V46.2z M294.9,64.7c2.2,0,4.4,0.3,6.4,1
		c2.1,0.7,4,1.7,5.6,3.2c1.6,1.4,2.9,3.3,3.9,5.7c1,2.3,1.4,5.2,1.4,8.5v32.3h-11.3V85.5c0-7.3-3.1-10.9-9.5-10.9
		c-0.9,0-2,0.2-3.2,0.4c-1.2,0.2-2.4,0.8-3.5,1.6c-1.1,0.8-2,1.9-2.8,3.4c-0.8,1.5-1.2,3.5-1.2,5.9v29.3h-11.3V65.8h10.7v5.7h0.2
		c1.7-2.5,3.9-4.3,6.4-5.2C289.2,65.2,292,64.7,294.9,64.7z M339.8,106.4c2.6,0,4.6-0.3,6.1-1c1.6-0.7,2.3-2,2.3-4v-0.5
		c0-0.8-0.1-1.5-0.4-2.1c-0.2-0.6-0.6-1.1-1.3-1.5c-0.7-0.4-1.8-0.8-3.2-1.2c-1.3-0.4-3.1-0.8-5.5-1.3c-3-0.6-5.6-1.3-7.7-2.1
		c-2.1-0.8-3.8-1.9-5.2-3.1c-1.3-1.2-2.3-2.6-3-4.3c-0.6-1.7-0.9-3.7-0.9-6v-0.9c0-1.7,0.3-3.3,1-4.9c0.7-1.7,1.8-3.2,3.3-4.5
		c1.6-1.3,3.5-2.4,5.9-3.2c2.5-0.8,5.4-1.3,8.9-1.3c2.9,0,5.9,0.3,9.1,0.8c3.2,0.5,6.3,1.8,9.2,3.7l-4.9,8.2
		c-1.7-1.1-3.6-1.9-5.7-2.4c-2-0.5-4.1-0.7-6.3-0.7c-3.5,0-6,0.4-7.3,1.3c-1.3,0.8-2,1.8-2,3.2v0.5c0,0.9,0.1,1.6,0.4,2.2
		c0.2,0.5,0.7,1,1.4,1.4c0.7,0.4,1.6,0.7,2.8,1c1.2,0.3,2.8,0.6,4.7,1c3.1,0.7,5.8,1.3,8.1,2.1c2.3,0.7,4.2,1.7,5.7,2.9
		c1.5,1.1,2.6,2.6,3.3,4.4c0.7,1.7,1.1,3.9,1.1,6.6v1c0,1.9-0.4,3.8-1.3,5.5c-0.8,1.7-2.1,3.3-3.8,4.6c-1.7,1.3-3.8,2.4-6.2,3.2
		s-5.3,1.2-8.4,1.2c-4.1,0-8.1-0.5-11.8-1.6c-3.7-1.1-6.7-2.6-9.1-4.5l5-8.6c2.2,1.5,4.6,2.7,7.1,3.7
		C333.9,106,336.7,106.4,339.8,106.4z M370.9,75.1H363v-9.4h7.9V53.1h11.3v12.7h12.5v9.4h-12.5v26.1c0,2.1,0.4,3.5,1.3,4.1
		c0.9,0.7,2.1,1,3.6,1c1.1,0,2.3-0.1,3.3-0.3c1.1-0.2,2.4-0.6,3.7-1.2l1.8,9.1c-1,0.5-2.4,0.9-4.2,1.3c-1.7,0.5-3.7,0.7-5.9,0.7
		c-2.8,0-5.2-0.3-7.1-1c-1.9-0.7-3.5-1.6-4.6-2.9c-1.1-1.3-2-2.8-2.4-4.6c-0.5-1.9-0.7-4-0.7-6.3V75.1z M417.5,116.1
		c-5.3,0-9.5-1.2-12.4-3.6c-2.9-2.5-4.4-5.9-4.4-10.3v-2.9c0-2,0.3-3.9,0.9-5.6c0.7-1.7,1.7-3.2,3.1-4.5c1.5-1.3,3.4-2.3,5.9-3
		c2.4-0.7,5.3-1.1,8.8-1.1h11.3v-1.9c0-3.1-0.7-5.3-2.2-6.6c-1.4-1.4-3.6-2.1-6.7-2.1c-5.2,0-9.8,1.6-14,4.9l-5.6-8.3
		c2.5-1.7,5.4-3.3,8.5-4.6c3.2-1.4,6.9-2.1,11.2-2.1c2.9,0,5.5,0.4,8,1.1c2.5,0.7,4.6,1.8,6.3,3.2c1.8,1.3,3.2,3,4.1,4.9
		c1,1.9,1.5,4.1,1.5,6.7v34.8h-10.2l-0.2-6.1c-0.5,1.1-1.3,2.1-2.3,3c-1,0.8-2.2,1.5-3.5,2.1c-1.3,0.6-2.7,1-4.1,1.3
		S418.8,116.1,417.5,116.1z M430.7,94h-11.1c-3,0-5.1,0.6-6.3,1.7c-1.1,1.1-1.7,2.7-1.7,4.6v1.1c0,1.6,0.6,2.9,1.7,3.8
		c1.1,0.9,2.8,1.3,5,1.3c4.6,0,8-1.1,10.3-3.3c1-1,1.6-2.1,1.8-3.2c0.2-1.2,0.3-2.7,0.3-4.6V94z M453,47.3h11.3v68H453V47.3z
		 M476,47.3h11.3v68H476V47.3z"/>
</g>
<g>
	<path d="M292.9,163.9c5.7,0,10.6,0,14.8-0.1c4.2,0,8-0.1,11.4-0.2c0.4-1.9,0.6-3.7,0.8-5.6c0.1-1.9,0.2-3.9,0.2-5.8v-1.8l-22.2,0.1
		v-7.5h30.9v7.8c0,2-0.1,4-0.3,6.2c-0.1,2.1-0.4,4.2-0.6,6.2c1.1-0.1,2.1-0.2,3.1-0.2c1-0.1,2-0.2,3-0.3l0.6,7.4
		c-2.2,0.3-4.8,0.5-7.7,0.7c-2.8,0.1-6.2,0.3-10.1,0.4v11.2h-8.8v-11.1c-2.3,0-4.7,0.1-7.2,0.1c-2.5,0-5.2,0-8,0V163.9z
		 M325.1,174.5H338V140h8.8V190H338v-8.3h-12.9V174.5z M312.4,197h35.5v7.6h-44.4v-18.9h8.9V197z M371.1,182.4
		c-2.4,0-4.6-0.3-6.5-0.9c-1.9-0.7-3.5-1.5-4.9-2.6c-1.3-1.1-2.3-2.3-3-3.7c-0.7-1.4-1.1-2.9-1.1-4.5v-2.7c0-1.6,0.4-3.1,1.1-4.5
		c0.7-1.4,1.7-2.6,3-3.7c1.4-1.1,3-1.9,4.9-2.5c1.9-0.7,4.1-1,6.5-1s4.6,0.3,6.5,1c1.9,0.6,3.5,1.4,4.8,2.5c1.4,1.1,2.4,2.3,3.1,3.7
		c0.7,1.4,1,2.9,1,4.5v2.7c0,1.6-0.4,3.1-1,4.5c-0.7,1.4-1.7,2.6-3.1,3.7c-1.3,1.1-2.9,1.9-4.8,2.6
		C375.7,182.1,373.6,182.4,371.1,182.4z M397.5,177.4h-8v-7.6h8v-6.1h-8v-7.6h8V140h8.8v47.2h-8.8V177.4z M373.7,196.9h33.6v7.6
		h-42.5v-18.1h8.9V196.9z M375.5,146.5H390v7.5h-37.5v-7.5h14.2v-7.1h8.8V146.5z M371.1,163.3c-1.2,0-2.2,0.2-3.1,0.5
		s-1.6,0.7-2.2,1.3c-0.6,0.5-1.1,1.1-1.4,1.7c-0.3,0.6-0.4,1.2-0.4,1.8v1.7c0,0.6,0.1,1.2,0.4,1.8c0.3,0.6,0.8,1.2,1.4,1.7
		c0.6,0.5,1.4,0.9,2.2,1.3c0.9,0.3,1.9,0.5,3.1,0.5c1.2,0,2.2-0.2,3.1-0.5c0.9-0.3,1.6-0.7,2.2-1.3s1-1.1,1.3-1.7
		c0.3-0.6,0.5-1.2,0.5-1.8v-1.7c0-0.6-0.2-1.2-0.5-1.8c-0.3-0.6-0.7-1.2-1.3-1.7s-1.4-0.9-2.2-1.3S372.3,163.3,371.1,163.3z
		 M472.1,177.2v7.5h-25.3v20.4h-8.9v-20.4h-25.4v-7.5H472.1z M442.3,172.1c-3.2,0-6.2-0.3-8.9-0.9c-2.7-0.6-5.1-1.5-7.1-2.7
		c-2-1.2-3.6-2.7-4.7-4.4c-1.1-1.8-1.7-3.8-1.7-6v-2.9c0-2.2,0.6-4.2,1.7-5.9s2.7-3.2,4.7-4.3c2-1.2,4.4-2.1,7.1-2.7
		c2.7-0.7,5.7-1,8.9-1s6.2,0.3,8.9,1c2.7,0.6,5.1,1.5,7.1,2.7c2,1.2,3.6,2.6,4.7,4.3s1.7,3.7,1.7,5.9v2.9c0,2.2-0.6,4.2-1.7,6
		c-1.1,1.7-2.7,3.2-4.7,4.4c-2,1.2-4.4,2.1-7.1,2.7C448.5,171.8,445.5,172.1,442.3,172.1z M442.3,148.7c-2,0-3.8,0.2-5.5,0.5
		c-1.6,0.3-3.1,0.8-4.3,1.4c-1.2,0.6-2.2,1.3-2.9,2.2c-0.7,0.8-1,1.8-1,2.9v2.1c0,1.1,0.3,2.1,1,2.9c0.7,0.8,1.7,1.6,2.9,2.2
		c1.2,0.6,2.6,1,4.3,1.3c1.7,0.3,3.5,0.5,5.5,0.5s3.8-0.2,5.4-0.5c1.7-0.3,3.1-0.8,4.3-1.3c1.2-0.6,2.2-1.3,2.9-2.2
		c0.7-0.9,1-1.9,1-2.9v-2.1c0-1.1-0.4-2-1-2.9c-0.7-0.9-1.7-1.6-2.9-2.2c-1.2-0.6-2.7-1.1-4.3-1.4
		C446,148.8,444.2,148.7,442.3,148.7z M478.2,190.9h8.9v9.1h-8.9V190.9z"/>
</g>
</svg>
