<?xml version="1.0" encoding="utf-8"?>
<!-- Generator: Adobe Illustrator 23.1.0, SVG Export Plug-In . SVG Version: 6.00 Build 0)  -->
<svg version="1.1" id="Layer_1" xmlns="http://www.w3.org/2000/svg" xmlns:xlink="http://www.w3.org/1999/xlink" x="0px" y="0px"
	 viewBox="0 0 194.4 65" style="enable-background:new 0 0 194.4 65;" xml:space="preserve">
<style type="text/css">
	.st0{fill:#8C8C8C;}
</style>
<path class="st0" d="M-46.9-73.7h11.3v49.6h-11.3V-73.7z M-47.2-93.2h11.9V-81h-11.9V-93.2z M2-74.8c2.2,0,4.4,0.3,6.4,1
	c2.1,0.7,4,1.7,5.6,3.2c1.6,1.4,2.9,3.3,3.9,5.7c1,2.3,1.4,5.2,1.4,8.5v32.3H7.9V-54c0-7.3-3.1-10.9-9.5-10.9c-0.9,0-2,0.2-3.2,0.4
	c-1.2,0.2-2.4,0.8-3.5,1.6c-1.1,0.8-2,1.9-2.8,3.4c-0.8,1.5-1.2,3.5-1.2,5.9v29.3h-11.3v-49.6h10.7v5.7h0.2c1.7-2.5,3.9-4.3,6.4-5.2
	C-3.7-74.2-1-74.8,2-74.8z M46.9-33c2.6,0,4.6-0.3,6.1-1c1.6-0.7,2.3-2,2.3-4v-0.5c0-0.8-0.1-1.5-0.4-2.1c-0.2-0.6-0.6-1.1-1.3-1.5
	c-0.7-0.4-1.8-0.8-3.2-1.2c-1.3-0.4-3.1-0.8-5.5-1.3c-3-0.6-5.6-1.3-7.7-2.1c-2.1-0.8-3.8-1.9-5.2-3.1c-1.3-1.2-2.3-2.6-3-4.3
	c-0.6-1.7-0.9-3.7-0.9-6v-0.9c0-1.7,0.3-3.3,1-4.9c0.7-1.7,1.8-3.2,3.3-4.5c1.6-1.3,3.5-2.4,5.9-3.2c2.5-0.8,5.4-1.3,8.9-1.3
	c2.9,0,5.9,0.3,9.1,0.8c3.2,0.5,6.3,1.8,9.2,3.7l-4.9,8.2c-1.7-1.1-3.6-1.9-5.7-2.4c-2-0.5-4.1-0.7-6.3-0.7c-3.5,0-6,0.4-7.3,1.3
	c-1.3,0.8-2,1.8-2,3.2v0.5c0,0.9,0.1,1.6,0.4,2.2c0.2,0.5,0.7,1,1.4,1.4c0.7,0.4,1.6,0.7,2.8,1c1.2,0.3,2.8,0.6,4.7,1
	c3.1,0.7,5.8,1.3,8.1,2.1c2.3,0.7,4.2,1.7,5.7,2.9c1.5,1.1,2.6,2.6,3.3,4.4c0.7,1.7,1.1,3.9,1.1,6.6v1c0,1.9-0.4,3.8-1.3,5.5
	c-0.8,1.7-2.1,3.3-3.8,4.6c-1.7,1.3-3.8,2.4-6.2,3.2s-5.3,1.2-8.4,1.2c-4.1,0-8.1-0.5-11.8-1.6c-3.7-1.1-6.7-2.6-9.1-4.5l5-8.6
	c2.2,1.5,4.6,2.7,7.1,3.7C40.9-33.5,43.8-33,46.9-33z M78-64.3h-7.9v-9.4H78v-12.7h11.3v12.7h12.5v9.4H89.3v26.1
	c0,2.1,0.4,3.5,1.3,4.1c0.9,0.7,2.1,1,3.6,1c1.1,0,2.3-0.1,3.3-0.3c1.1-0.2,2.4-0.6,3.7-1.2l1.8,9.1c-1,0.5-2.4,0.9-4.2,1.3
	c-1.7,0.5-3.7,0.7-5.9,0.7c-2.8,0-5.2-0.3-7.1-1c-1.9-0.7-3.5-1.6-4.6-2.9c-1.1-1.3-2-2.8-2.4-4.6c-0.5-1.9-0.7-4-0.7-6.3V-64.3z
	 M124.5-23.4c-5.3,0-9.5-1.2-12.4-3.6c-2.9-2.5-4.4-5.9-4.4-10.3v-2.9c0-2,0.3-3.9,0.9-5.6c0.7-1.7,1.7-3.2,3.1-4.5
	c1.5-1.3,3.4-2.3,5.9-3c2.4-0.7,5.3-1.1,8.8-1.1h11.3v-1.9c0-3.1-0.7-5.3-2.2-6.6c-1.4-1.4-3.6-2.1-6.7-2.1c-5.2,0-9.8,1.6-14,4.9
	l-5.6-8.3c2.5-1.7,5.4-3.3,8.5-4.6c3.2-1.4,6.9-2.1,11.2-2.1c2.9,0,5.5,0.4,8,1.1c2.5,0.7,4.6,1.8,6.3,3.2c1.8,1.3,3.2,3,4.1,4.9
	c1,1.9,1.5,4.1,1.5,6.7v34.8h-10.2l-0.2-6.1c-0.5,1.1-1.3,2.1-2.3,3c-1,0.8-2.2,1.5-3.5,2.1c-1.3,0.6-2.7,1-4.1,1.3
	S125.9-23.4,124.5-23.4z M137.8-45.4h-11.1c-3,0-5.1,0.6-6.3,1.7c-1.1,1.1-1.7,2.7-1.7,4.6v1.1c0,1.6,0.6,2.9,1.7,3.8
	c1.1,0.9,2.8,1.3,5,1.3c4.6,0,8-1.1,10.3-3.3c1-1,1.6-2.1,1.8-3.2c0.2-1.2,0.3-2.7,0.3-4.6V-45.4z M160-92.1h11.3v68H160V-92.1z
	 M183.1-92.1h11.3v68h-11.3V-92.1z"/>
<path d="M0,24.4c5.7,0,10.6,0,14.8-0.1c4.2,0,8-0.1,11.4-0.2c0.4-1.9,0.6-3.7,0.8-5.6c0.1-1.9,0.2-3.9,0.2-5.8v-1.8L5,11V3.5H36v7.8
	c0,2-0.1,4-0.3,6.2c-0.1,2.1-0.4,4.2-0.6,6.2c1.1-0.1,2.1-0.2,3.1-0.2c1-0.1,2-0.2,3-0.3l0.6,7.4c-2.2,0.3-4.8,0.5-7.7,0.7
	c-2.8,0.1-6.2,0.3-10.1,0.4v11.2h-8.8V31.9c-2.3,0-4.7,0.1-7.2,0.1c-2.5,0-5.2,0-8,0V24.4z M32.2,35.1h12.9V0.6h8.8v50.1h-8.8v-8.3
	H32.2V35.1z M19.5,57.6H55v7.6H10.6V46.3h8.9V57.6z M78.2,43c-2.4,0-4.6-0.3-6.5-0.9c-1.9-0.7-3.5-1.5-4.9-2.6
	c-1.3-1.1-2.3-2.3-3-3.7c-0.7-1.4-1.1-2.9-1.1-4.5v-2.7c0-1.6,0.4-3.1,1.1-4.5c0.7-1.4,1.7-2.6,3-3.7c1.4-1.1,3-1.9,4.9-2.5
	c1.9-0.7,4.1-1,6.5-1s4.6,0.3,6.5,1c1.9,0.6,3.5,1.4,4.8,2.5c1.4,1.1,2.4,2.3,3.1,3.7c0.7,1.4,1,2.9,1,4.5v2.7c0,1.6-0.4,3.1-1,4.5
	c-0.7,1.4-1.7,2.6-3.1,3.7c-1.3,1.1-2.9,1.9-4.8,2.6C82.8,42.7,80.6,43,78.2,43z M104.6,38h-8v-7.6h8v-6.1h-8v-7.6h8V0.6h8.8v47.2
	h-8.8V38z M80.8,57.5h33.6V65H71.9V46.9h8.9V57.5z M82.5,7.1H97v7.5H59.5V7.1h14.2V0h8.8V7.1z M78.2,23.9c-1.2,0-2.2,0.2-3.1,0.5
	s-1.6,0.7-2.2,1.3c-0.6,0.5-1.1,1.1-1.4,1.7c-0.3,0.6-0.4,1.2-0.4,1.8v1.7c0,0.6,0.1,1.2,0.4,1.8c0.3,0.6,0.8,1.2,1.4,1.7
	c0.6,0.5,1.4,0.9,2.2,1.3c0.9,0.3,1.9,0.5,3.1,0.5c1.2,0,2.2-0.2,3.1-0.5c0.9-0.3,1.6-0.7,2.2-1.3s1-1.1,1.3-1.7
	c0.3-0.6,0.5-1.2,0.5-1.8v-1.7c0-0.6-0.2-1.2-0.5-1.8c-0.3-0.6-0.7-1.2-1.3-1.7s-1.4-0.9-2.2-1.3S79.4,23.9,78.2,23.9z M179.2,37.7
	v7.5h-25.3v20.4h-8.9V45.2h-25.4v-7.5H179.2z M149.3,32.7c-3.2,0-6.2-0.3-8.9-0.9c-2.7-0.6-5.1-1.5-7.1-2.7c-2-1.2-3.6-2.7-4.7-4.4
	c-1.1-1.8-1.7-3.8-1.7-6v-2.9c0-2.2,0.6-4.2,1.7-5.9s2.7-3.2,4.7-4.3c2-1.2,4.4-2.1,7.1-2.7c2.7-0.7,5.7-1,8.9-1s6.2,0.3,8.9,1
	c2.7,0.6,5.1,1.5,7.1,2.7c2,1.2,3.6,2.6,4.7,4.3s1.7,3.7,1.7,5.9v2.9c0,2.2-0.6,4.2-1.7,6c-1.1,1.7-2.7,3.2-4.7,4.4
	c-2,1.2-4.4,2.1-7.1,2.7C155.5,32.4,152.6,32.7,149.3,32.7z M149.3,9.2c-2,0-3.8,0.2-5.5,0.5c-1.6,0.3-3.1,0.8-4.3,1.4
	c-1.2,0.6-2.2,1.3-2.9,2.2c-0.7,0.8-1,1.8-1,2.9v2.1c0,1.1,0.3,2.1,1,2.9c0.7,0.8,1.7,1.6,2.9,2.2c1.2,0.6,2.6,1,4.3,1.3
	c1.7,0.3,3.5,0.5,5.5,0.5s3.8-0.2,5.4-0.5c1.7-0.3,3.1-0.8,4.3-1.3c1.2-0.6,2.2-1.3,2.9-2.2c0.7-0.9,1-1.9,1-2.9v-2.1
	c0-1.1-0.4-2-1-2.9c-0.7-0.9-1.7-1.6-2.9-2.2c-1.2-0.6-2.7-1.1-4.3-1.4C153.1,9.4,151.3,9.2,149.3,9.2z M185.3,51.5h8.9v9.1h-8.9
	V51.5z"/>
</svg>
